<?xml version="1.0" encoding="iso-8859-1"?>
<!-- Generator: Adobe Illustrator 19.0.0, SVG Export Plug-In . SVG Version: 6.00 Build 0)  -->
<svg version="1.1" id="Layer_1" xmlns="http://www.w3.org/2000/svg" xmlns:xlink="http://www.w3.org/1999/xlink" x="0px" y="0px"
	 viewBox="0 0 512 512" style="enable-background:new 0 0 512 512;" xml:space="preserve" fill="#AF2575">
<g>
	<g>
		<path d="M498.805,13.21c-8.508-8.508-19.822-13.196-31.858-13.197H211.139c-12.034,0-23.348,4.687-31.857,13.196
			c-8.509,8.509-13.196,19.823-13.196,31.858c0,12.033,4.685,23.347,13.196,31.857l87.41,87.409L16.774,414.252
			C5.956,425.067,0,439.449,0,454.746c0,15.297,5.956,29.678,16.773,40.495c11.164,11.163,25.829,16.746,40.494,16.746
			c14.664-0.001,29.33-5.583,40.494-16.746l249.918-249.918l87.41,87.409c8.51,8.509,19.824,13.196,31.858,13.196
			c12.034,0,23.348-4.687,31.857-13.196c8.508-8.507,13.196-19.821,13.196-31.857V45.066C512,33.03,507.313,21.716,498.805,13.21z
			 M491.603,300.872c-0.001,6.587-2.565,12.779-7.222,17.435c-4.656,4.657-10.848,7.221-17.434,7.221s-12.778-2.564-17.435-7.221
			l-94.622-94.621c-3.983-3.982-10.442-3.982-14.424,0l-257.13,257.13c-14.375,14.375-37.765,14.375-52.139,0
			c-6.964-6.964-10.799-16.223-10.799-26.07c0-9.848,3.835-19.106,10.798-26.069l257.131-257.131
			c1.912-1.913,2.987-4.507,2.987-7.212s-1.075-5.298-2.987-7.212l-94.622-94.621c-9.614-9.613-9.614-25.255,0-34.868
			c4.657-4.657,10.848-7.222,17.433-7.222h255.807c6.588,0.001,12.78,2.565,17.436,7.222c4.656,4.657,7.221,10.848,7.221,17.433
			V300.872z"/>
	</g>
</g>
<g>
	<g>
		<path d="M465.184,197.242c-5.633,0-10.199,4.567-10.199,10.199v4.311c0,5.632,4.566,10.199,10.199,10.199
			c5.633,0,10.199-4.566,10.199-10.199v-4.311C475.383,201.81,470.817,197.242,465.184,197.242z"/>
	</g>
</g>
<g>
	<g>
		<path d="M465.026,39.923c-5.633,0-10.199,4.567-10.199,10.199v113.509c0,5.632,4.566,10.199,10.199,10.199
			c5.633,0,10.199-4.567,10.199-10.199V50.122C475.225,44.49,470.659,39.923,465.026,39.923z"/>
	</g>
</g>
<g>
</g>
<g>
</g>
<g>
</g>
<g>
</g>
<g>
</g>
<g>
</g>
<g>
</g>
<g>
</g>
<g>
</g>
<g>
</g>
<g>
</g>
<g>
</g>
<g>
</g>
<g>
</g>
<g>
</g>
</svg>
